<mxfile host="65bd71144e">
    <diagram id="NMNHoxecBD7GOg-Pw8OJ" name="Page-1">
        <mxGraphModel dx="1874" dy="754" grid="1" gridSize="10" guides="1" tooltips="1" connect="1" arrows="1" fold="1" page="1" pageScale="1" pageWidth="850" pageHeight="1100" math="0" shadow="0">
            <root>
                <mxCell id="0"/>
                <mxCell id="1" parent="0"/>
                <mxCell id="2" value="" style="rounded=0;whiteSpace=wrap;html=1;dropTarget=1;recursiveResize=0;container=1;" parent="1" vertex="1">
                    <mxGeometry x="470" y="540" width="270" height="70" as="geometry"/>
                </mxCell>
                <mxCell id="14" value="" style="rounded=0;whiteSpace=wrap;html=1;dropTarget=1;recursiveResize=0;container=1;" vertex="1" parent="1">
                    <mxGeometry x="-70" y="30" width="640" height="1860" as="geometry"/>
                </mxCell>
                <mxCell id="13" value="" style="rounded=0;whiteSpace=wrap;html=1;dropTarget=1;recursiveResize=0;container=1;fillColor=#1D331F;fontColor=#ffffff;strokeColor=#4D4D4D;" vertex="1" parent="14">
                    <mxGeometry x="15" y="820" width="590" height="315" as="geometry"/>
                </mxCell>
                <mxCell id="15" value="&lt;h1&gt;Class ParticleSystem&lt;/h1&gt;&lt;p&gt;&amp;nbsp;The class has a main buffer:psBuffer for storing all particle systems.&lt;/p&gt;&lt;p&gt;&lt;br&gt;&lt;/p&gt;" style="text;html=1;strokeColor=none;fillColor=none;spacing=5;spacingTop=-20;whiteSpace=wrap;overflow=hidden;rounded=0;" vertex="1" parent="13">
                    <mxGeometry x="10" y="25" width="400" height="100" as="geometry"/>
                </mxCell>
                <mxCell id="16" value="Particles" style="swimlane;fontStyle=0;childLayout=stackLayout;horizontal=1;startSize=30;horizontalStack=0;resizeParent=1;resizeParentMax=0;resizeLast=0;collapsible=1;marginBottom=0;whiteSpace=wrap;html=1;fillColor=#1C1D1C;" vertex="1" parent="13">
                    <mxGeometry x="10" y="135" width="160" height="150" as="geometry"/>
                </mxCell>
                <mxCell id="17" value="psBuffer:[]" style="text;align=left;verticalAlign=middle;spacingLeft=4;spacingRight=4;overflow=hidden;points=[[0,0.5],[1,0.5]];portConstraint=eastwest;rotatable=0;whiteSpace=wrap;html=1;fillColor=#1D1D1D;" vertex="1" parent="16">
                    <mxGeometry y="30" width="160" height="30" as="geometry"/>
                </mxCell>
                <mxCell id="18" value="count:int&lt;span style=&quot;white-space: pre;&quot;&gt;&#9;&lt;/span&gt;" style="text;align=left;verticalAlign=middle;spacingLeft=4;spacingRight=4;overflow=hidden;points=[[0,0.5],[1,0.5]];portConstraint=eastwest;rotatable=0;whiteSpace=wrap;html=1;fillColor=#1D1D1D;" vertex="1" parent="16">
                    <mxGeometry y="60" width="160" height="30" as="geometry"/>
                </mxCell>
                <mxCell id="19" value="&lt;p style=&quot;line-height: 40%;&quot;&gt;&lt;font style=&quot;font-size: 17px;&quot;&gt;.&lt;br&gt;.&lt;br&gt;.&lt;/font&gt;&lt;/p&gt;" style="text;align=left;verticalAlign=middle;spacingLeft=4;spacingRight=4;overflow=hidden;points=[[0,0.5],[1,0.5]];portConstraint=eastwest;rotatable=0;whiteSpace=wrap;html=1;fillColor=#1C1C1D;" vertex="1" parent="16">
                    <mxGeometry y="90" width="160" height="60" as="geometry"/>
                </mxCell>
                <mxCell id="20" value="" style="rounded=0;whiteSpace=wrap;html=1;dropTarget=1;recursiveResize=0;container=1;fillColor=#2A331E;fontColor=#ffffff;strokeColor=#4D4D4D;" vertex="1" parent="14">
                    <mxGeometry x="15" y="1180" width="590" height="630" as="geometry"/>
                </mxCell>
                <mxCell id="4" value="&lt;h1&gt;Class Particles&lt;/h1&gt;&lt;p&gt;Particle Syystem consists of a class Particles. The class has a main buffer for storing all the meshes of the particles.&lt;/p&gt;&lt;p&gt;&lt;br&gt;&lt;/p&gt;" style="text;html=1;strokeColor=none;fillColor=none;spacing=5;spacingTop=-20;whiteSpace=wrap;overflow=hidden;rounded=0;" vertex="1" parent="20">
                    <mxGeometry x="10" y="27.5" width="400" height="100" as="geometry"/>
                </mxCell>
                <mxCell id="5" value="variables" style="swimlane;fontStyle=0;childLayout=stackLayout;horizontal=1;startSize=30;horizontalStack=0;resizeParent=1;resizeParentMax=0;resizeLast=0;collapsible=1;marginBottom=0;whiteSpace=wrap;html=1;fillColor=#1D1D1D;" vertex="1" parent="20">
                    <mxGeometry x="10" y="137.5" width="160" height="150" as="geometry"/>
                </mxCell>
                <mxCell id="6" value="buffer:[]" style="text;strokeColor=none;fillColor=#1D1D1D;align=left;verticalAlign=middle;spacingLeft=4;spacingRight=4;overflow=hidden;points=[[0,0.5],[1,0.5]];portConstraint=eastwest;rotatable=0;whiteSpace=wrap;html=1;" vertex="1" parent="5">
                    <mxGeometry y="30" width="160" height="30" as="geometry"/>
                </mxCell>
                <mxCell id="7" value="lifeTime:float&lt;span style=&quot;white-space: pre;&quot;&gt;&#9;&lt;/span&gt;" style="text;strokeColor=none;fillColor=#1D1D1D;align=left;verticalAlign=middle;spacingLeft=4;spacingRight=4;overflow=hidden;points=[[0,0.5],[1,0.5]];portConstraint=eastwest;rotatable=0;whiteSpace=wrap;html=1;" vertex="1" parent="5">
                    <mxGeometry y="60" width="160" height="30" as="geometry"/>
                </mxCell>
                <mxCell id="8" value="&lt;p style=&quot;line-height: 40%;&quot;&gt;&lt;font style=&quot;font-size: 17px;&quot;&gt;.&lt;br&gt;.&lt;br&gt;.&lt;/font&gt;&lt;/p&gt;" style="text;strokeColor=none;fillColor=#1D1D1D;align=left;verticalAlign=middle;spacingLeft=4;spacingRight=4;overflow=hidden;points=[[0,0.5],[1,0.5]];portConstraint=eastwest;rotatable=0;whiteSpace=wrap;html=1;" vertex="1" parent="5">
                    <mxGeometry y="90" width="160" height="60" as="geometry"/>
                </mxCell>
                <mxCell id="27" value="&lt;h1 style=&quot;&quot;&gt;&lt;font style=&quot;font-size: 12px;&quot;&gt;This class has the main functionality of a specific particle system&lt;/font&gt;&lt;/h1&gt;" style="text;html=1;strokeColor=none;fillColor=none;spacing=5;spacingTop=-20;whiteSpace=wrap;overflow=hidden;rounded=0;" vertex="1" parent="20">
                    <mxGeometry x="10" y="310" width="400" height="40" as="geometry"/>
                </mxCell>
                <mxCell id="28" value="methods" style="swimlane;fontStyle=0;childLayout=stackLayout;horizontal=1;startSize=30;horizontalStack=0;resizeParent=1;resizeParentMax=0;resizeLast=0;collapsible=1;marginBottom=0;whiteSpace=wrap;html=1;fillColor=#1D1D1D;" vertex="1" parent="20">
                    <mxGeometry x="10" y="370" width="160" height="210" as="geometry"/>
                </mxCell>
                <mxCell id="29" value="&lt;div style=&quot;color: rgb(212, 212, 212); background-color: rgb(21, 21, 21); font-family: Consolas, &amp;quot;Courier New&amp;quot;, monospace; font-size: 14px; line-height: 19px;&quot;&gt;&lt;span style=&quot;color: #17daf0;&quot;&gt;Update&lt;/span&gt;&lt;/div&gt;" style="text;strokeColor=none;fillColor=#1D1D1D;align=left;verticalAlign=middle;spacingLeft=4;spacingRight=4;overflow=hidden;points=[[0,0.5],[1,0.5]];portConstraint=eastwest;rotatable=0;whiteSpace=wrap;html=1;" vertex="1" parent="28">
                    <mxGeometry y="30" width="160" height="30" as="geometry"/>
                </mxCell>
                <mxCell id="30" value="&lt;div style=&quot;color: rgb(212, 212, 212); background-color: rgb(21, 21, 21); font-family: Consolas, &amp;quot;Courier New&amp;quot;, monospace; font-size: 14px; line-height: 19px;&quot;&gt;&lt;span style=&quot;color: #17daf0;&quot;&gt;Create&lt;/span&gt;&lt;/div&gt;" style="text;strokeColor=none;fillColor=#1D1D1D;align=left;verticalAlign=middle;spacingLeft=4;spacingRight=4;overflow=hidden;points=[[0,0.5],[1,0.5]];portConstraint=eastwest;rotatable=0;whiteSpace=wrap;html=1;" vertex="1" parent="28">
                    <mxGeometry y="60" width="160" height="30" as="geometry"/>
                </mxCell>
                <mxCell id="32" value="&lt;div style=&quot;color: rgb(212, 212, 212); background-color: rgb(21, 21, 21); font-family: Consolas, &amp;quot;Courier New&amp;quot;, monospace; font-size: 14px; line-height: 19px;&quot;&gt;&lt;div style=&quot;line-height: 19px;&quot;&gt;&lt;span style=&quot;color: #17daf0;&quot;&gt;SetPos&lt;/span&gt;&lt;/div&gt;&lt;/div&gt;" style="text;strokeColor=none;fillColor=#1D1D1D;align=left;verticalAlign=middle;spacingLeft=4;spacingRight=4;overflow=hidden;points=[[0,0.5],[1,0.5]];portConstraint=eastwest;rotatable=0;whiteSpace=wrap;html=1;" vertex="1" parent="28">
                    <mxGeometry y="90" width="160" height="30" as="geometry"/>
                </mxCell>
                <mxCell id="53" value="&lt;div style=&quot;color: rgb(212, 212, 212); background-color: rgb(21, 21, 21); font-family: Consolas, &amp;quot;Courier New&amp;quot;, monospace; font-size: 14px; line-height: 19px;&quot;&gt;&lt;div style=&quot;line-height: 19px;&quot;&gt;&lt;div style=&quot;line-height: 19px;&quot;&gt;&lt;span style=&quot;color: #17daf0;&quot;&gt;Move&lt;/span&gt;&lt;/div&gt;&lt;/div&gt;&lt;/div&gt;" style="text;strokeColor=none;fillColor=#1D1D1D;align=left;verticalAlign=middle;spacingLeft=4;spacingRight=4;overflow=hidden;points=[[0,0.5],[1,0.5]];portConstraint=eastwest;rotatable=0;whiteSpace=wrap;html=1;" vertex="1" parent="28">
                    <mxGeometry y="120" width="160" height="30" as="geometry"/>
                </mxCell>
                <mxCell id="54" value="&lt;p style=&quot;line-height: 40%;&quot;&gt;&lt;font style=&quot;font-size: 17px;&quot;&gt;.&lt;br&gt;.&lt;br&gt;.&lt;/font&gt;&lt;/p&gt;" style="text;strokeColor=none;fillColor=#1D1D1D;align=left;verticalAlign=middle;spacingLeft=4;spacingRight=4;overflow=hidden;points=[[0,0.5],[1,0.5]];portConstraint=eastwest;rotatable=0;whiteSpace=wrap;html=1;" vertex="1" parent="28">
                    <mxGeometry y="150" width="160" height="60" as="geometry"/>
                </mxCell>
                <mxCell id="3" value="&lt;h1&gt;Particle System&lt;/h1&gt;" style="text;html=1;strokeColor=none;fillColor=none;spacing=5;spacingTop=-20;whiteSpace=wrap;overflow=hidden;rounded=0;" vertex="1" parent="14">
                    <mxGeometry x="215" y="20" width="190" height="50" as="geometry"/>
                </mxCell>
                <mxCell id="26" value="&lt;h1&gt;Usage&lt;/h1&gt;&lt;p&gt;There is a&amp;nbsp; ParticleSystem initialization, where a local scoped class object:ParticleSystem is created(local to the translation unit of the file Particles.js). Ofcourse the access to the particle system object is global.&lt;/p&gt;&lt;p&gt;Example: We create a function CreateParticleSystem() in Ball.js, for the particles of the ball's tail. So the only file that has access to this particle system is the Ball.js file.&lt;/p&gt;&lt;p&gt;The update of the particles of a particle system is:&lt;/p&gt;&lt;p&gt;&lt;span style=&quot;white-space: pre;&quot;&gt;&#9;&lt;/span&gt;- Loop through all particles&lt;br&gt;&lt;/p&gt;&lt;p&gt;&lt;span style=&quot;white-space: pre;&quot;&gt;&#9;&lt;/span&gt;- If particle is alive and the life time has expired&lt;br&gt;&lt;/p&gt;&lt;p&gt;&lt;span style=&quot;white-space: pre;&quot;&gt;&#9;&lt;/span&gt;&lt;span style=&quot;white-space: pre;&quot;&gt;&#9;&lt;/span&gt;Set is alive to false&lt;br&gt;&lt;/p&gt;&lt;p&gt;&lt;span style=&quot;white-space: pre;&quot;&gt;&#9;&lt;/span&gt;- Else&lt;/p&gt;&lt;p&gt;&amp;nbsp;&lt;br&gt;&lt;/p&gt;&lt;p&gt;&lt;span style=&quot;white-space: pre;&quot;&gt;&#9;&lt;/span&gt;&lt;span style=&quot;white-space: pre;&quot;&gt;&#9;&lt;/span&gt;&lt;br&gt;&lt;/p&gt;" style="text;html=1;strokeColor=none;fillColor=none;spacing=5;spacingTop=-20;whiteSpace=wrap;overflow=hidden;rounded=0;fontSize=17;" vertex="1" parent="14">
                    <mxGeometry x="20" y="60" width="610" height="590" as="geometry"/>
                </mxCell>
            </root>
        </mxGraphModel>
    </diagram>
</mxfile>